<svg version="1.0" xmlns="http://www.w3.org/2000/svg"
 width="32.000000pt" height="32.000000pt" viewBox="0 0 32.000000 32.000000"
 preserveAspectRatio="xMidYMid meet">

<g transform="translate(0.000000,32.000000) scale(0.100000,-0.100000)"
fill="#000000" stroke="none">
<path d="M83 277 l-63 -21 0 -118 0 -118 140 0 140 0 0 118 0 118 -68 22 c-80
26 -70 26 -149 -1z m150 -13 l57 -18 0 -108 c0 -89 -3 -108 -15 -108 -12 0
-15 17 -15 95 l0 95 -100 0 -100 0 0 -95 c0 -78 -3 -95 -15 -95 -12 0 -15 19
-15 108 l0 108 63 21 c34 12 67 20 72 18 6 -1 36 -11 68 -21z m17 -149 c0 -50
-4 -85 -10 -85 -5 0 -10 16 -10 35 0 24 -5 35 -15 35 -10 0 -15 10 -15 30 0
28 -2 30 -40 30 -38 0 -40 -2 -40 -30 0 -20 -5 -30 -15 -30 -10 0 -15 -11 -15
-35 0 -19 -4 -35 -10 -35 -6 0 -10 35 -10 85 l0 85 90 0 90 0 0 -85z m-68 10
c5 -22 2 -25 -22 -25 -24 0 -27 3 -22 25 3 15 11 25 22 25 11 0 19 -10 22 -25z
m-32 -70 c0 -20 -5 -25 -25 -25 -20 0 -25 5 -25 25 0 20 5 25 25 25 20 0 25
-5 25 -25z m70 0 c0 -20 -5 -25 -25 -25 -20 0 -25 5 -25 25 0 20 5 25 25 25
20 0 25 -5 25 -25z"/>
</g>
</svg>

