<svg version="1.0" xmlns="http://www.w3.org/2000/svg"
 width="50" height="40" viewBox="0 0 50 40"
 preserveAspectRatio="xMidYMid meet">

<g transform="translate(0.000000,40.000000) scale(0.100000,-0.100000)"
fill="#81B3D2" stroke="none">
<path d="M130 310 l0 -90 -65 0 -66 0 3 -107 3 -108 245 0 245 0 3 108 3 107
-66 0 -65 0 0 90 0 90 -120 0 -120 0 0 -90z m70 32 l0 -38 50 0 50 0 0 38 c0
34 3 38 25 38 25 0 25 -1 25 -80 l0 -80 -100 0 -100 0 0 80 c0 79 0 80 25 80
22 0 25 -4 25 -38z m80 14 c0 -19 -6 -25 -30 -28 -27 -4 -30 -2 -30 24 0 24 4
28 30 28 25 0 30 -4 30 -24z m-200 -196 c0 -37 2 -39 23 -31 12 5 32 5 45 0
20 -8 22 -6 22 31 0 39 1 40 35 40 l35 0 0 -90 0 -90 -110 0 -110 0 0 90 0 90
30 0 c28 0 30 -2 30 -40z m70 15 c0 -20 -5 -25 -25 -25 -20 0 -25 5 -25 25 0
20 5 25 25 25 20 0 25 -5 25 -25z m180 -15 c0 -37 2 -39 23 -31 12 5 32 5 45
0 20 -8 22 -6 22 31 0 38 2 40 30 40 l30 0 0 -90 0 -90 -110 0 -110 0 0 90 0
90 35 0 c34 0 35 -1 35 -40z m70 15 c0 -20 -5 -25 -25 -25 -20 0 -25 5 -25 25
0 20 5 25 25 25 20 0 25 -5 25 -25z"/>
</g>
</svg>
