<svg version="1.0" xmlns="http://www.w3.org/2000/svg"
 width="50" height="37" viewBox="0 0 50 37"
 preserveAspectRatio="xMidYMid meet">

<g transform="translate(0.000000,37.000000) scale(0.100000,-0.100000)"
fill="#81B3D2" stroke="none">
<path d="M7 354 c-4 -4 -7 -49 -7 -99 0 -67 4 -96 14 -104 9 -8 59 -11 152 -9
l139 3 0 105 0 105 -146 3 c-80 1 -148 -1 -152 -4z m283 -104 l0 -90 -135 0
-135 0 0 90 0 90 135 0 135 0 0 -90z"/>
<path d="M80 250 c0 -33 4 -60 10 -60 6 0 10 27 10 60 0 33 -4 60 -10 60 -6 0
-10 -27 -10 -60z"/>
<path d="M150 250 c0 -33 4 -60 10 -60 6 0 10 27 10 60 0 33 -4 60 -10 60 -6
0 -10 -27 -10 -60z"/>
<path d="M230 250 c0 -33 4 -60 10 -60 6 0 10 27 10 60 0 33 -4 60 -10 60 -6
0 -10 -27 -10 -60z"/>
<path d="M340 199 l0 -91 -152 6 c-84 3 -158 2 -164 -2 -20 -13 -25 -45 -10
-67 13 -20 23 -23 88 -21 72 1 73 1 88 33 15 32 16 33 85 33 69 0 70 -1 85
-33 11 -23 23 -33 43 -35 32 -4 67 21 67 48 0 10 7 20 15 24 11 4 15 21 15 62
0 52 -3 59 -39 95 -32 33 -45 39 -80 39 l-41 0 0 -91z m97 49 c34 -31 29 -38
-27 -38 -49 0 -50 1 -50 30 0 26 4 30 27 30 15 0 37 -10 50 -22z m43 -98 c0
-22 -2 -40 -3 -40 -2 0 -18 7 -35 16 -23 11 -36 12 -51 5 -29 -16 -31 -14 -31
24 l0 35 60 0 60 0 0 -40z m-40 -44 c19 -23 8 -61 -18 -64 -44 -7 -67 32 -36
62 19 20 38 20 54 2z m-352 -39 c-5 -37 -67 -33 -68 5 0 4 7 14 16 22 21 22
56 3 52 -27z m92 10 c0 -24 -18 -39 -41 -35 -29 4 -38 37 -14 54 20 15 55 2
55 -19z"/>
</g>
</svg>
