
<svg version="1.0" xmlns="http://www.w3.org/2000/svg"
 width="50" height="41" viewBox="0 0 50 41"
 preserveAspectRatio="xMidYMid meet">

<g transform="translate(0.000000,41.000000) scale(0.100000,-0.100000)"
fill="#81B3D2" stroke="none">
<path d="M131 351 c-62 -27 -117 -54 -122 -62 -5 -8 -9 -76 -9 -151 0 -186 19
-182 22 4 l3 143 112 47 112 47 113 -47 113 -48 3 -142 c3 -190 22 -189 22 2
0 103 -4 146 -12 153 -12 9 -234 104 -240 102 -2 0 -54 -22 -117 -48z"/>
<path d="M80 110 l0 -110 170 0 170 0 0 60 0 60 -75 0 -75 0 0 50 0 50 -95 0
-95 0 0 -110z m170 50 l0 -40 -75 0 -75 0 0 40 0 40 75 0 75 0 0 -40z m0 -100
l0 -40 -75 0 -75 0 0 40 0 40 75 0 75 0 0 -40z m150 0 l0 -40 -65 0 -65 0 0
40 0 40 65 0 65 0 0 -40z"/>
</g>
</svg>
